<?xml version="1.0" standalone="no"?>
<!DOCTYPE svg PUBLIC "-//W3C//DTD SVG 20010904//EN"
 "http://www.w3.org/TR/2001/REC-SVG-20010904/DTD/svg10.dtd">
<svg version="1.0" xmlns="http://www.w3.org/2000/svg"
 width="3000.000000pt" height="3000.000000pt" viewBox="0 0 3000.000000 3000.000000"
 preserveAspectRatio="xMidYMid meet">

<g transform="translate(0.000000,3000.000000) scale(0.100000,-0.100000)"
fill="#000000" stroke="none">
<path d="M3445 26984 c-16 -2 -75 -9 -130 -15 -583 -64 -1150 -289 -1628 -643
-54 -40 -252 -210 -311 -265 -72 -70 -245 -263 -308 -345 -202 -262 -405 -612
-503 -868 -20 -51 -42 -109 -50 -128 -67 -168 -142 -483 -181 -755 -26 -184
-24 -641 4 -835 50 -342 125 -622 243 -904 290 -689 776 -1250 1409 -1624 348
-205 751 -351 1150 -416 52 -9 129 -21 170 -28 57 -9 609 -13 2299 -15 l2224
-3 24 22 c12 12 23 28 23 36 0 8 40 56 90 106 49 51 90 98 90 106 0 19 221
240 240 240 8 0 56 41 105 90 49 50 97 90 105 90 9 0 29 14 45 30 16 17 36 30
45 30 9 0 36 20 60 45 24 25 51 45 60 45 9 0 29 14 45 30 16 17 36 30 45 30 9
0 29 14 45 30 16 17 36 30 45 30 9 0 29 14 45 30 16 17 36 30 46 30 9 0 22 7
29 15 7 8 20 15 29 15 10 0 30 14 46 30 16 17 36 30 46 30 9 0 22 7 29 15 7 8
20 15 30 15 10 0 23 7 30 15 7 8 20 15 30 15 10 0 23 7 30 15 7 8 27 15 45 15
18 0 38 7 45 15 7 8 20 15 30 15 10 0 23 7 30 15 7 8 20 15 30 15 10 0 23 7
30 15 7 8 27 15 45 15 18 0 38 7 45 15 7 8 27 15 45 15 18 0 38 7 45 15 7 8
27 15 45 15 18 0 38 7 45 15 8 9 30 15 60 15 30 0 52 6 60 15 8 9 30 15 60 15
30 0 52 6 60 15 8 9 30 15 60 15 30 0 52 6 60 15 8 9 30 15 60 15 30 0 52 6
60 15 9 10 32 15 75 15 43 0 66 5 75 15 9 11 33 15 90 15 57 0 81 4 90 15 10
12 42 15 165 15 125 0 155 3 165 15 11 14 101 15 758 15 409 -1 747 1 750 4 3
3 3 9 0 12 -7 6 -146 35 -278 57 -52 9 -129 21 -170 28 -59 10 -949 14 -4295
19 -3796 6 -4228 8 -4301 22 -320 63 -632 234 -865 475 -54 56 -106 115 -115
130 -10 15 -28 39 -40 53 -31 36 -141 221 -179 304 -46 99 -110 295 -130 396
-33 174 -30 478 6 684 31 181 154 456 289 651 49 70 284 310 345 352 28 19 73
50 100 69 78 54 300 161 405 195 213 68 -242 62 5065 68 4508 6 4802 7 4831
23 75 41 88 72 163 383 97 405 142 592 151 625 6 19 15 55 21 80 6 25 17 72
25 105 39 154 42 184 29 237 -22 80 -136 231 -200 263 -40 20 -61 20 -4920 21
-2684 1 -4893 0 -4910 -2z"/>
<path d="M15280 26983 c-51 -17 -83 -40 -146 -105 -40 -40 -80 -89 -90 -108
-18 -34 -19 -120 -19 -2535 l0 -2500 858 -3 857 -2 0 1420 c0 979 3 1420 10
1420 6 0 32 -19 58 -43 26 -23 63 -54 82 -69 19 -14 63 -50 96 -79 34 -30 108
-92 164 -139 57 -47 138 -114 180 -150 43 -36 124 -103 180 -150 57 -47 139
-116 182 -155 44 -38 91 -78 105 -87 14 -9 57 -45 96 -80 39 -35 78 -67 88
-73 10 -5 55 -42 101 -82 144 -126 229 -197 272 -229 22 -17 69 -55 103 -85
34 -30 105 -90 158 -134 53 -44 134 -111 180 -150 46 -38 130 -108 186 -155
56 -47 139 -117 183 -155 45 -39 91 -78 103 -86 12 -8 57 -45 100 -82 178
-151 229 -194 282 -236 31 -24 77 -63 102 -85 25 -23 92 -79 149 -126 57 -47
136 -113 176 -147 l72 -63 200 0 c165 0 202 -3 212 -15 8 -9 30 -15 60 -15 30
0 52 -6 60 -15 8 -10 30 -15 62 -15 34 0 50 -4 54 -15 5 -11 21 -15 60 -15 39
0 56 -4 60 -15 4 -8 17 -15 30 -15 14 0 27 -7 30 -15 4 -8 15 -15 27 -15 11 0
40 -20 64 -45 23 -25 50 -45 59 -45 9 0 47 -31 85 -69 38 -38 69 -76 69 -85 0
-9 20 -36 45 -59 25 -24 45 -52 45 -63 1 -10 14 -30 30 -44 17 -13 30 -33 30
-45 1 -11 14 -31 30 -45 26 -21 30 -31 30 -76 0 -37 4 -54 15 -58 11 -4 15
-21 15 -60 0 -39 4 -55 15 -60 11 -4 15 -22 15 -75 0 -55 3 -70 16 -75 14 -5
16 -17 11 -74 l-5 -67 40 -29 c21 -15 75 -58 117 -95 43 -36 125 -104 181
-151 56 -47 137 -114 180 -150 42 -36 123 -103 180 -150 56 -47 144 -121 195
-165 51 -44 137 -116 190 -160 53 -44 134 -111 180 -150 46 -38 127 -106 180
-150 53 -44 134 -111 180 -150 46 -38 127 -106 180 -150 53 -44 117 -97 141
-118 23 -21 78 -68 121 -103 43 -35 120 -99 171 -142 51 -42 128 -106 171
-142 43 -36 112 -93 152 -128 141 -120 224 -190 274 -231 28 -22 91 -74 140
-116 50 -41 131 -109 180 -150 50 -42 115 -96 145 -121 30 -25 89 -74 130
-109 41 -35 100 -84 130 -109 96 -79 232 -193 322 -268 47 -40 124 -104 170
-141 45 -38 103 -88 128 -111 25 -23 70 -60 100 -83 30 -22 66 -53 80 -68 14
-15 48 -43 75 -63 28 -20 75 -59 105 -86 30 -28 82 -72 115 -98 68 -55 137
-111 245 -203 41 -35 100 -84 130 -109 51 -43 115 -96 316 -263 45 -38 101
-85 125 -105 160 -136 198 -168 248 -207 31 -24 81 -67 111 -96 30 -28 75 -65
100 -82 25 -17 56 -43 70 -58 14 -15 57 -51 95 -80 39 -29 79 -63 90 -75 11
-12 47 -43 80 -68 33 -25 83 -66 110 -91 80 -73 186 -152 222 -167 26 -11 149
-14 645 -14 701 0 647 -6 756 95 67 62 106 119 117 173 4 17 11 32 16 32 5 0
9 2227 9 5680 0 3453 -4 5680 -9 5680 -5 0 -13 15 -16 33 -12 54 -32 84 -108
157 -117 115 -46 105 -725 108 -418 2 -605 -1 -635 -9 -31 -8 -63 -32 -130
-97 -72 -71 -90 -95 -102 -136 -13 -44 -15 -616 -15 -4660 0 -2536 0 -4617 0
-4623 0 -24 -26 -13 -65 28 -22 23 -58 55 -80 71 -22 16 -74 58 -115 93 -183
156 -226 193 -279 234 -31 24 -78 65 -106 91 -27 26 -72 63 -100 82 -27 20
-61 48 -75 63 -14 15 -56 51 -95 80 -38 28 -79 62 -90 75 -11 12 -45 41 -75
63 -30 23 -80 64 -110 92 -30 28 -66 58 -80 67 -14 9 -57 44 -97 79 -71 64
-167 145 -246 207 -23 18 -76 62 -117 97 -203 173 -290 246 -442 369 -40 32
-95 80 -123 106 -27 26 -72 63 -100 82 -27 20 -61 48 -75 63 -14 15 -50 46
-80 68 -30 23 -83 66 -117 97 -91 80 -199 172 -236 198 -18 13 -66 52 -107 88
-152 130 -222 190 -258 217 -20 15 -71 57 -112 92 -187 161 -224 191 -251 211
-26 19 -85 69 -267 226 -41 35 -99 83 -130 107 -32 24 -80 65 -108 90 -48 43
-132 113 -227 190 -23 18 -76 62 -117 97 -41 35 -108 92 -149 126 -41 35 -107
90 -147 123 -99 81 -240 199 -349 290 -49 42 -112 94 -140 116 -27 23 -86 72
-130 110 -155 134 -226 194 -258 217 -18 13 -68 54 -112 92 -158 136 -228 195
-256 216 -16 11 -64 51 -106 87 -185 158 -229 195 -283 237 -31 25 -81 66
-111 92 -66 57 -182 154 -319 268 -57 47 -139 117 -182 155 -44 39 -91 77
-105 87 -14 9 -60 46 -102 82 -137 119 -222 191 -259 219 -35 27 -77 63 -261
219 -40 35 -86 72 -102 84 -16 11 -64 51 -106 87 -88 75 -204 173 -353 297
-299 249 -430 359 -539 452 -40 35 -92 77 -115 94 -22 17 -69 55 -102 85 -34
30 -108 92 -164 139 -57 47 -138 114 -180 150 -43 36 -124 103 -180 150 -56
47 -137 114 -180 150 -42 36 -123 103 -180 150 -103 85 -189 158 -375 315
-133 112 -253 212 -370 310 -53 44 -134 112 -179 150 -46 39 -129 108 -186
155 -57 47 -135 112 -174 145 -39 33 -90 75 -113 93 -81 63 -65 62 -727 61
-330 0 -608 -3 -616 -6z"/>
<path d="M10815 20970 c-33 -4 -109 -12 -170 -18 -60 -6 -123 -15 -138 -21
-16 -6 -47 -11 -70 -11 -23 0 -55 -7 -71 -15 -15 -8 -47 -15 -70 -15 -22 0
-54 -7 -70 -15 -15 -8 -38 -15 -50 -15 -11 0 -34 -7 -50 -15 -15 -8 -40 -15
-55 -15 -14 0 -39 -7 -55 -15 -15 -8 -36 -15 -45 -15 -10 0 -26 -7 -37 -15
-10 -8 -28 -15 -40 -15 -11 0 -29 -7 -40 -15 -10 -8 -25 -15 -32 -15 -40 -1
-472 -213 -472 -232 0 -4 -6 -8 -13 -8 -8 0 -33 -13 -55 -30 -23 -16 -45 -30
-48 -30 -3 0 -23 -13 -44 -30 -21 -16 -41 -30 -45 -30 -5 0 -27 -16 -51 -35
-24 -20 -55 -42 -69 -49 -76 -39 -481 -451 -581 -591 -18 -24 -47 -63 -66 -87
-43 -53 -195 -283 -237 -358 -72 -129 -211 -422 -211 -443 0 -7 -7 -22 -15
-34 -8 -12 -17 -34 -19 -50 -1 -15 -8 -37 -13 -48 -27 -50 -46 -107 -45 -134
0 -16 -6 -35 -14 -42 -8 -6 -14 -26 -14 -43 -1 -17 -7 -42 -15 -56 -8 -14 -14
-39 -15 -56 0 -17 -7 -48 -15 -67 -8 -20 -15 -54 -15 -75 0 -22 -7 -56 -15
-75 -8 -20 -15 -59 -15 -86 0 -28 -7 -76 -15 -108 -12 -45 -15 -126 -15 -388
0 -262 3 -343 15 -388 8 -32 15 -84 15 -115 1 -31 7 -75 15 -97 8 -22 15 -56
15 -75 0 -19 7 -46 14 -59 8 -14 12 -40 9 -61 -3 -23 1 -48 11 -68 9 -17 16
-44 16 -59 1 -15 7 -39 15 -53 8 -14 14 -37 15 -51 0 -14 7 -34 15 -45 8 -10
15 -29 15 -41 0 -12 6 -37 14 -55 8 -18 22 -53 31 -78 9 -25 23 -57 31 -72 8
-14 14 -33 14 -41 0 -8 7 -20 15 -27 8 -7 15 -20 15 -29 0 -16 89 -202 102
-211 4 -3 12 -17 17 -30 6 -14 25 -47 41 -75 17 -27 35 -62 41 -77 6 -16 15
-28 19 -28 4 0 17 -18 29 -41 12 -22 26 -46 31 -52 24 -29 107 -145 125 -172
10 -16 24 -34 30 -40 7 -5 38 -44 71 -85 73 -94 233 -260 299 -311 28 -21 75
-59 105 -83 91 -75 250 -196 256 -196 3 0 23 -13 43 -28 20 -16 43 -32 51 -36
16 -7 31 -16 95 -56 61 -39 72 -45 179 -100 54 -27 104 -50 112 -50 8 0 14 -4
14 -10 0 -5 12 -13 28 -16 15 -4 33 -12 41 -18 15 -12 73 -35 111 -43 13 -4
31 -12 38 -20 7 -7 26 -13 41 -13 16 0 34 -7 41 -15 7 -8 21 -15 32 -15 11 0
29 -5 41 -12 12 -6 40 -15 62 -19 37 -6 52 -11 138 -40 17 -6 55 -15 82 -20
58 -9 140 -26 205 -40 25 -6 88 -15 140 -20 52 -5 138 -13 190 -19 60 -6 1599
-10 4195 -10 3545 0 4108 -2 4160 -15 33 -8 77 -14 98 -15 21 0 54 -7 74 -15
19 -8 47 -15 62 -15 14 0 35 -7 45 -15 11 -8 28 -15 39 -15 10 0 31 -6 45 -14
15 -7 65 -32 112 -55 123 -59 217 -116 299 -183 105 -83 323 -311 354 -370 7
-13 23 -39 37 -58 34 -47 48 -71 60 -97 5 -12 17 -31 27 -42 36 -40 43 -51 43
-69 0 -11 7 -25 15 -32 8 -7 15 -22 15 -34 0 -11 7 -30 15 -40 8 -11 15 -29
15 -41 0 -12 7 -30 15 -41 8 -10 15 -32 15 -47 0 -15 6 -38 14 -50 7 -12 16
-56 20 -98 3 -42 10 -89 16 -103 13 -36 13 -436 0 -472 -6 -14 -13 -61 -17
-103 -3 -42 -10 -82 -16 -89 -5 -7 -13 -29 -17 -50 -10 -44 -28 -97 -46 -134
-8 -14 -14 -35 -14 -46 0 -11 -7 -25 -15 -32 -8 -7 -15 -18 -15 -24 0 -6 -18
-45 -40 -86 -22 -41 -44 -85 -49 -97 -6 -13 -14 -23 -18 -23 -5 0 -17 -19 -28
-41 -10 -23 -25 -44 -32 -46 -7 -3 -13 -11 -13 -18 0 -25 -258 -288 -325 -331
-17 -10 -34 -24 -38 -31 -4 -7 -13 -13 -19 -13 -5 0 -27 -12 -47 -27 -20 -16
-46 -34 -59 -41 -95 -53 -153 -82 -167 -82 -8 0 -15 -4 -15 -10 0 -5 -12 -13
-27 -16 -16 -4 -35 -12 -43 -19 -8 -7 -28 -13 -43 -13 -15 0 -35 -6 -45 -15
-9 -8 -35 -17 -57 -20 -22 -2 -53 -9 -70 -15 -98 -36 -95 -36 -4976 -37 -3821
-2 -4780 -5 -4800 -15 -33 -17 -69 -51 -69 -66 0 -6 -7 -17 -15 -24 -8 -7 -15
-27 -15 -44 -1 -17 -7 -42 -15 -56 -8 -14 -14 -41 -15 -61 0 -20 -7 -53 -15
-72 -8 -20 -15 -49 -15 -66 0 -16 -7 -42 -15 -57 -8 -16 -15 -44 -15 -62 0
-18 -5 -43 -12 -55 -13 -24 -26 -91 -34 -172 -3 -27 -12 -64 -20 -82 -8 -17
-14 -44 -14 -61 0 -16 -7 -43 -15 -58 -8 -16 -15 -45 -15 -64 -1 -19 -7 -46
-15 -60 -8 -14 -15 -41 -15 -60 0 -19 -7 -46 -15 -60 -8 -14 -15 -41 -15 -60
0 -19 -7 -46 -15 -60 -8 -14 -14 -45 -15 -68 0 -38 7 -60 39 -118 8 -15 86
-112 118 -147 14 -15 45 -36 69 -47 43 -20 84 -20 4871 -20 3209 0 4857 4
4913 10 47 6 129 15 184 19 54 5 103 14 109 20 6 6 36 11 67 11 30 1 66 7 80
15 14 8 41 14 60 15 32 0 80 12 165 42 17 6 47 13 67 15 21 3 42 11 49 19 6 8
26 14 44 14 18 0 38 7 45 15 7 8 27 15 45 15 18 0 38 7 45 15 7 8 21 15 32 15
11 0 32 6 46 13 15 8 45 22 67 32 22 9 47 21 55 26 8 5 22 12 30 15 8 3 22 10
30 15 8 5 22 12 30 15 8 3 22 10 30 15 8 5 22 12 30 15 8 3 22 10 30 15 8 5
21 11 28 14 32 13 39 16 67 35 17 11 39 24 50 30 11 6 34 19 50 30 17 11 36
23 44 26 24 12 103 67 185 129 44 33 97 72 118 87 86 62 388 364 479 480 85
109 190 252 224 306 10 17 52 85 70 114 5 9 28 52 50 95 22 43 43 80 47 83 3
3 10 18 13 33 4 15 11 27 16 27 5 0 9 5 9 12 0 6 23 59 51 116 28 57 48 106
46 109 -5 4 13 47 44 105 5 10 9 28 9 40 0 13 7 32 15 42 8 11 15 32 15 46 0
14 7 35 15 46 8 10 15 30 15 44 0 14 7 36 15 50 8 14 14 39 15 56 0 17 7 48
15 67 8 20 15 56 15 79 1 24 7 54 15 68 8 14 14 46 15 72 0 26 5 59 11 75 39
101 40 887 0 960 -6 12 -11 45 -11 73 0 28 -5 61 -12 73 -7 12 -16 48 -20 80
-4 31 -12 83 -16 115 -4 31 -13 67 -20 79 -7 12 -12 34 -12 50 -1 15 -7 39
-15 53 -8 14 -14 36 -15 50 0 15 -5 31 -11 37 -6 6 -14 26 -19 44 -14 53 -36
109 -48 121 -7 7 -12 21 -12 33 0 17 -42 115 -71 165 -5 8 -12 22 -15 30 -3 8
-10 22 -15 30 -5 8 -12 22 -15 30 -3 8 -10 22 -15 30 -5 8 -11 21 -14 28 -3 6
-7 18 -10 25 -3 6 -19 35 -36 62 -16 28 -35 62 -40 78 -6 15 -15 27 -20 27 -5
0 -13 8 -16 18 -7 18 -92 153 -102 162 -4 3 -15 19 -25 35 -73 115 -374 454
-460 516 -21 16 -62 50 -92 75 -29 26 -62 52 -72 58 -19 10 -91 65 -158 121
-18 14 -35 25 -39 25 -4 0 -24 14 -45 30 -21 17 -41 30 -44 30 -4 0 -25 12
-49 27 -60 39 -76 49 -132 78 -54 28 -75 39 -102 55 -10 6 -25 13 -33 16 -8 3
-22 10 -30 15 -8 5 -22 12 -30 15 -29 11 -85 37 -100 46 -8 4 -22 11 -30 14
-8 3 -29 12 -47 20 -17 8 -39 14 -48 14 -9 0 -23 7 -31 15 -9 8 -26 15 -39 15
-13 0 -36 6 -52 14 -63 31 -105 46 -133 46 -15 0 -41 6 -57 14 -36 18 -116 38
-173 44 -25 2 -51 9 -58 15 -7 5 -43 13 -80 18 -37 4 -87 12 -112 18 -156 35
-170 35 -4440 41 -3317 4 -4191 8 -4213 18 -16 6 -52 12 -80 12 -29 1 -63 7
-77 15 -14 8 -37 14 -51 15 -14 0 -34 7 -45 15 -10 8 -27 15 -38 15 -26 0
-258 115 -341 168 -104 68 -192 137 -268 211 -88 85 -202 230 -258 327 -68
118 -91 154 -100 154 -5 0 -9 8 -9 19 0 10 -7 24 -15 31 -8 7 -15 22 -15 34 0
12 -7 31 -15 42 -8 10 -15 28 -15 39 0 11 -7 33 -15 49 -8 15 -15 36 -15 45 0
9 -7 29 -15 45 -8 15 -15 43 -15 62 0 18 -8 55 -17 81 -14 40 -17 91 -17 323
0 199 4 281 12 298 7 12 16 52 19 90 3 37 12 76 19 87 8 11 14 31 14 45 0 14
7 34 15 44 8 11 15 28 15 37 0 15 15 52 42 99 4 8 11 22 14 30 3 8 10 22 15
30 5 8 12 22 15 30 3 8 9 22 14 30 5 8 19 33 31 55 11 22 34 59 50 83 16 23
43 62 59 86 43 63 285 301 349 345 119 79 112 75 254 150 53 28 103 51 111 51
7 0 19 7 26 15 7 8 24 15 39 15 14 0 35 7 45 15 11 8 34 15 50 15 17 1 42 7
56 15 14 8 45 15 70 15 25 0 63 5 85 11 28 8 1476 12 4821 14 l4781 3 40 20
c43 23 93 80 93 109 1 10 7 29 15 43 8 14 15 43 15 65 0 22 7 51 15 65 8 14
14 39 15 56 0 17 7 48 15 67 8 20 15 53 15 74 0 21 7 47 15 57 8 11 15 38 15
60 0 23 7 50 15 60 8 11 15 36 15 57 0 20 7 50 15 65 8 16 15 45 15 64 1 19 7
46 15 60 8 14 15 41 15 60 0 19 7 46 15 60 8 14 15 41 15 60 0 19 7 46 15 60
8 14 15 41 15 60 0 19 7 46 15 60 20 35 20 163 0 180 -8 7 -15 17 -15 22 0 24
-145 198 -165 198 -7 0 -25 6 -41 14 -25 13 -684 15 -4869 19 -2662 3 -4867 1
-4900 -3z"/>
<path d="M13272 18488 c-8 -8 -12 -47 -12 -107 0 -327 -127 -681 -352 -981
-10 -14 -74 -80 -141 -148 -210 -211 -449 -351 -748 -436 -130 -37 -187 -40
-859 -45 -582 -5 -665 -8 -665 -21 0 -8 10 -16 21 -18 12 -2 34 -16 49 -33 16
-16 36 -29 46 -29 9 0 22 -7 29 -15 7 -8 20 -15 30 -15 10 0 23 -7 30 -15 7
-8 27 -15 45 -15 18 0 38 -7 45 -15 11 -13 221 -15 1832 -13 l1819 3 19 25
c55 73 215 388 281 554 120 300 203 641 229 941 21 234 24 376 9 386 -23 14
-1692 12 -1707 -3z"/>
<path d="M15033 18493 c-10 -4 -13 -204 -13 -953 0 -855 2 -948 16 -954 24 -9
1677 -7 1692 2 10 7 12 205 10 958 l-3 949 -845 2 c-465 1 -851 -1 -857 -4z"/>
<path d="M2270 16761 c-84 -13 -139 -61 -156 -139 -3 -15 -9 -38 -14 -52 -4
-14 -16 -59 -25 -100 -22 -98 -87 -367 -186 -768 -87 -350 -89 -373 -46 -444
58 -95 133 -179 181 -203 l50 -25 2842 0 c2582 0 2842 1 2848 16 9 22 10 20
-39 70 -25 25 -45 52 -45 59 0 8 -13 28 -30 45 -16 17 -30 37 -30 45 0 8 -13
28 -29 44 -15 16 -31 41 -35 55 -3 14 -11 26 -16 26 -6 0 -10 9 -10 20 0 10
-13 33 -29 49 -15 16 -31 41 -35 55 -3 14 -11 26 -16 26 -6 0 -10 9 -10 19 0
11 -6 26 -13 33 -8 7 -17 26 -21 41 -3 15 -11 27 -16 27 -6 0 -10 9 -10 19 0
11 -6 26 -13 33 -8 7 -17 26 -21 41 -3 15 -11 27 -16 27 -6 0 -10 8 -10 19 0
10 -7 24 -15 31 -8 7 -15 20 -15 30 0 10 -7 23 -15 30 -8 7 -15 27 -15 45 0
18 -7 38 -15 45 -8 7 -15 27 -15 45 0 18 -7 38 -15 45 -8 7 -15 20 -15 30 0
10 -7 23 -15 30 -9 8 -15 30 -15 60 0 30 -6 52 -15 60 -8 7 -15 27 -15 45 0
18 -7 38 -15 45 -10 9 -15 32 -15 75 0 43 -5 66 -15 75 -9 8 -15 30 -15 60 0
30 -6 52 -15 60 -9 8 -15 30 -15 58 0 36 -6 52 -27 74 l-27 28 -2340 -1
c-1288 -1 -2361 -5 -2386 -8z"/>
<path d="M900 14954 c-45 -19 -175 -147 -203 -199 l-22 -40 0 -5725 0 -5725
22 -40 c22 -41 148 -168 193 -195 21 -13 119 -15 670 -18 713 -3 695 -4 757
61 65 69 61 -109 68 2522 3 1314 9 2393 11 2397 3 4 877 8 1943 8 l1938 0 44
-31 c24 -17 58 -44 74 -59 17 -15 48 -41 71 -56 22 -16 76 -56 118 -89 43 -33
100 -76 126 -95 26 -19 83 -62 125 -95 43 -33 99 -76 125 -95 26 -19 72 -54
101 -77 165 -129 192 -150 281 -213 31 -22 60 -45 63 -50 4 -6 24 -21 44 -34
21 -13 58 -41 83 -63 24 -21 65 -53 89 -70 24 -18 73 -55 109 -83 36 -27 90
-68 120 -90 30 -22 84 -63 120 -90 36 -28 85 -65 109 -83 25 -17 66 -50 92
-72 26 -22 65 -52 86 -67 21 -16 67 -50 103 -78 36 -27 91 -68 122 -90 31 -22
60 -44 63 -50 3 -6 32 -28 63 -50 31 -22 77 -56 102 -76 25 -19 65 -50 90 -69
25 -19 70 -54 100 -78 30 -24 75 -57 100 -75 53 -38 139 -104 245 -187 42 -33
91 -70 108 -82 18 -13 52 -39 77 -58 25 -19 70 -54 100 -78 30 -24 75 -57 100
-75 51 -37 112 -84 185 -142 80 -65 137 -108 180 -136 22 -15 57 -41 77 -58
20 -17 67 -53 104 -81 37 -27 89 -68 116 -90 27 -22 64 -50 81 -62 18 -13 52
-39 77 -58 25 -20 65 -50 89 -68 24 -18 67 -50 96 -72 28 -22 73 -56 100 -75
43 -32 75 -56 220 -171 94 -74 140 -109 180 -135 22 -15 57 -41 77 -58 20 -17
67 -53 104 -81 37 -27 89 -68 116 -90 27 -22 64 -50 81 -62 18 -13 52 -39 77
-58 25 -20 65 -50 89 -68 142 -105 379 -286 425 -326 26 -23 51 -41 55 -41 4
0 31 -19 59 -42 29 -24 78 -62 109 -86 113 -83 197 -148 259 -200 35 -28 67
-52 71 -52 5 0 31 -19 58 -42 28 -24 62 -50 75 -58 22 -13 152 -15 978 -18
664 -2 966 1 994 8 22 6 58 28 79 48 33 31 46 57 84 167 49 143 54 190 26 250
-20 44 -42 66 -113 117 -86 61 -275 206 -322 247 -26 23 -51 41 -55 41 -4 0
-30 19 -59 43 -28 23 -81 65 -118 92 -37 28 -95 73 -129 101 -33 28 -71 56
-83 63 -11 6 -41 28 -66 49 -25 20 -75 60 -112 87 -37 28 -96 74 -130 103 -35
28 -67 52 -71 52 -4 0 -34 22 -65 48 -31 26 -87 70 -124 97 -36 28 -95 73
-130 100 -61 48 -120 93 -189 145 -18 14 -76 59 -129 100 -53 41 -121 93 -151
115 -29 22 -82 62 -117 90 -34 27 -124 95 -198 152 -74 57 -160 122 -190 146
-75 59 -333 256 -374 287 -56 42 -187 143 -274 211 -45 35 -97 75 -116 89 -98
74 -288 219 -338 259 -31 25 -85 67 -120 94 -35 26 -116 89 -182 140 -65 50
-131 101 -146 112 -73 53 -298 226 -317 244 -12 11 -39 33 -61 48 -40 29 -270
203 -372 283 -50 39 -201 155 -385 295 -29 22 -75 58 -103 80 -28 22 -81 63
-117 90 -37 28 -84 64 -105 80 -119 94 -157 123 -199 155 -26 19 -83 62 -126
95 -43 33 -101 78 -130 100 -29 22 -75 58 -103 80 -28 22 -81 63 -117 90 -37
28 -84 64 -104 80 -21 17 -58 45 -82 62 -24 18 -64 49 -89 68 -46 37 -130 101
-216 167 -27 20 -69 53 -94 73 -25 19 -65 50 -89 68 -24 17 -53 40 -65 50
l-21 17 30 26 c17 14 62 50 100 79 39 30 115 90 170 135 55 45 121 97 148 117
47 35 60 66 32 77 -20 7 -20 75 0 82 11 5 15 21 15 60 0 39 4 56 15 60 11 5
15 21 15 60 0 39 4 56 15 60 11 5 15 21 15 60 0 39 4 56 15 60 11 5 15 21 15
60 0 39 4 56 15 60 11 5 15 21 15 60 0 39 4 56 15 60 11 5 15 21 15 60 0 39 4
56 15 60 11 5 15 21 15 60 0 39 4 56 15 60 11 5 15 22 15 69 0 43 5 66 15 75
10 8 15 31 15 65 0 38 4 55 15 59 11 4 15 20 15 54 0 32 5 54 15 62 9 8 15 30
15 60 0 30 6 52 15 60 9 8 15 30 15 60 0 30 6 52 15 60 8 7 15 27 15 45 0 18
7 38 15 45 8 7 15 20 15 30 0 10 7 23 15 30 8 7 15 20 15 29 0 9 20 37 45 61
25 24 45 51 45 60 0 20 71 90 91 90 8 0 35 20 59 45 24 25 52 45 61 45 9 0 22
7 29 15 7 8 20 15 30 15 10 0 23 7 30 15 8 9 30 15 60 15 30 0 52 6 60 15 8 9
30 15 60 15 30 0 52 6 60 15 8 10 30 15 62 15 34 0 50 4 54 15 5 13 104 15
808 15 l801 0 47 38 c120 97 275 220 313 247 41 29 104 79 232 186 34 28 73
59 86 68 24 15 74 55 214 172 34 28 73 59 86 68 14 9 53 40 88 68 35 29 96 78
134 108 39 31 102 82 141 113 39 31 108 86 153 122 97 77 195 155 283 227 35
29 82 66 103 82 22 17 74 58 115 91 103 82 221 176 289 229 31 24 56 49 56 55
0 8 -350 12 -1325 14 -863 1 -1328 6 -1334 12 -23 23 -40 12 -192 -115 -39
-33 -108 -89 -153 -125 -46 -36 -113 -90 -150 -120 -38 -30 -105 -84 -150
-120 -45 -36 -113 -90 -150 -120 -38 -30 -105 -84 -151 -120 -45 -36 -107 -87
-138 -114 -31 -26 -71 -58 -88 -70 -37 -24 -131 -101 -209 -168 -30 -26 -72
-59 -94 -72 -22 -14 -42 -30 -46 -36 -7 -11 -139 -120 -249 -205 -29 -22 -79
-62 -113 -90 -33 -27 -97 -79 -142 -115 -45 -36 -114 -91 -154 -123 -40 -32
-107 -86 -150 -120 -42 -34 -103 -84 -135 -111 -31 -26 -68 -55 -82 -64 -14
-9 -45 -35 -70 -57 -25 -23 -59 -50 -75 -60 -17 -11 -51 -38 -76 -61 -25 -23
-64 -53 -86 -67 -23 -15 -44 -31 -48 -37 -6 -10 -206 -172 -414 -337 -36 -29
-102 -82 -146 -118 -44 -35 -111 -89 -150 -120 -38 -31 -105 -84 -147 -118
-42 -34 -100 -80 -128 -102 -28 -22 -75 -61 -105 -87 -30 -26 -67 -55 -82 -64
-15 -10 -48 -37 -73 -59 -25 -23 -59 -50 -75 -60 -17 -10 -48 -35 -70 -56 -22
-20 -63 -54 -91 -75 -27 -22 -97 -76 -153 -121 l-103 -83 -1934 0 c-1063 0
-1935 4 -1938 8 -2 4 -8 1142 -11 2528 -8 2740 -4 2586 -62 2655 -14 16 -43
39 -64 49 -37 19 -62 20 -681 20 -550 -1 -648 -3 -678 -16z"/>
<path d="M22210 14956 c0 -8 11 -23 25 -34 14 -11 25 -27 25 -36 0 -9 20 -36
45 -60 25 -25 45 -52 45 -60 0 -8 14 -29 30 -46 17 -17 30 -37 30 -45 0 -7 13
-26 28 -42 16 -15 32 -40 35 -56 4 -15 12 -27 17 -27 6 0 10 -9 10 -20 0 -11
13 -32 28 -47 16 -16 32 -40 36 -55 3 -16 11 -28 16 -28 6 0 10 -9 10 -19 0
-11 6 -26 13 -33 8 -7 17 -26 21 -41 3 -15 11 -27 16 -27 6 0 10 -9 10 -19 0
-11 7 -26 15 -35 8 -8 15 -21 15 -29 0 -8 7 -20 15 -27 8 -7 15 -20 15 -30 0
-10 7 -23 15 -30 8 -7 15 -27 15 -45 0 -18 7 -38 15 -45 8 -7 15 -20 15 -30 0
-10 7 -23 15 -30 8 -7 15 -27 15 -45 0 -18 7 -38 15 -45 9 -8 15 -30 15 -60 0
-30 6 -52 15 -60 8 -7 15 -27 15 -45 0 -18 7 -38 15 -45 9 -8 15 -30 15 -60 0
-30 6 -52 15 -60 9 -8 15 -30 15 -60 0 -30 6 -52 15 -60 10 -9 15 -31 15 -73
0 -52 4 -65 27 -89 l27 -28 1385 0 c1448 0 1497 -2 1697 -44 373 -79 743 -267
1039 -527 259 -228 448 -475 609 -796 55 -111 63 -129 113 -268 179 -500 162
-1199 -43 -1687 -154 -368 -291 -576 -545 -830 -252 -251 -530 -435 -859 -566
-167 -66 -283 -96 -500 -129 -107 -16 -334 -18 -3202 -20 -2701 -3 -3088 -5
-3098 -18 -9 -11 -34 -15 -90 -15 -57 0 -81 -4 -90 -15 -10 -12 -42 -15 -165
-15 -123 0 -155 -3 -165 -15 -11 -13 -243 -15 -1976 -15 l-1963 0 -36 -31
c-20 -18 -48 -53 -63 -78 l-27 -46 0 -2425 0 -2425 22 -40 c22 -41 148 -168
193 -195 21 -13 113 -15 618 -18 417 -2 605 1 635 9 31 8 63 32 125 92 46 45
91 96 100 112 16 28 17 168 20 1724 2 1332 5 1697 15 1703 6 4 1205 8 2662 8
2504 0 2651 -1 2676 -18 26 -16 85 -59 199 -142 30 -22 81 -59 114 -83 105
-76 207 -150 326 -237 30 -22 78 -56 105 -76 28 -19 77 -55 110 -80 33 -24 86
-64 119 -87 79 -57 143 -103 216 -157 98 -72 161 -118 215 -155 28 -20 79 -58
115 -85 36 -27 82 -61 103 -75 21 -14 59 -41 85 -60 26 -19 63 -46 82 -60 19
-14 60 -44 90 -68 30 -23 73 -54 95 -69 43 -30 108 -77 205 -148 102 -75 162
-119 215 -155 59 -41 94 -68 155 -115 24 -19 61 -46 81 -60 85 -58 148 -103
209 -150 36 -27 83 -62 105 -76 44 -30 221 -160 275 -202 19 -15 53 -39 75
-53 39 -26 137 -97 245 -178 30 -23 97 -72 148 -109 52 -37 119 -86 150 -109
32 -23 75 -54 97 -69 37 -26 195 -140 280 -205 22 -16 82 -60 133 -97 52 -37
119 -86 150 -109 32 -23 75 -54 97 -69 70 -48 239 -172 276 -203 19 -16 60
-43 89 -58 l54 -28 969 -3 c689 -2 980 1 1010 9 74 20 108 66 157 217 47 148
49 187 11 264 -16 32 -45 59 -113 108 -49 36 -107 78 -127 93 -20 15 -92 68
-161 118 -69 49 -141 102 -160 117 -19 15 -53 39 -75 53 -22 14 -49 36 -59 47
-11 12 -23 22 -28 22 -4 0 -52 33 -106 72 -53 40 -115 85 -137 99 -22 14 -49
36 -59 47 -11 12 -23 22 -28 22 -8 0 -141 96 -277 199 -19 14 -69 51 -112 81
-70 50 -146 105 -297 217 -31 23 -68 50 -82 60 -14 10 -68 49 -120 88 -52 38
-109 79 -126 90 -17 11 -44 30 -60 43 -16 13 -81 61 -144 107 -63 45 -137 99
-165 119 -27 20 -97 71 -155 114 -58 43 -154 113 -215 157 -101 72 -247 179
-402 294 -69 52 -299 218 -371 269 -52 37 -194 141 -289 211 -34 25 -79 58
-100 73 -130 92 -298 220 -298 226 0 4 216 10 480 13 288 3 514 10 565 18 379
53 560 94 870 196 201 66 343 125 550 232 188 96 206 106 395 232 246 162 406
293 615 501 120 120 180 188 344 390 43 54 229 325 277 405 13 22 29 47 34 56
160 269 340 682 410 944 106 397 147 629 161 903 3 72 10 132 15 132 5 0 9 65
9 145 0 80 -4 145 -9 145 -5 0 -12 57 -15 128 -15 281 -56 512 -161 907 -62
233 -237 645 -369 870 -20 33 -39 67 -43 75 -9 20 -119 192 -166 260 -21 30
-49 73 -64 95 -14 22 -39 54 -55 71 -16 17 -44 52 -61 76 -95 134 -321 378
-457 492 -47 39 -111 93 -142 121 -75 66 -113 94 -298 218 -194 131 -311 199
-470 275 -231 111 -279 131 -475 199 -203 71 -517 148 -715 177 -58 8 -141 21
-185 28 -61 9 -534 13 -1947 15 -1628 3 -1868 2 -1868 -11z"/>
<path d="M15120 13380 c-12 -9 -6 -19 38 -60 30 -28 68 -58 85 -68 30 -16 161
-17 2117 -17 1847 0 2085 2 2085 15 0 8 -10 16 -21 18 -12 2 -34 16 -49 33
-20 20 -38 29 -61 29 -17 0 -37 7 -44 15 -7 8 -20 15 -30 15 -10 0 -23 7 -30
15 -11 13 -250 15 -2044 15 -1351 0 -2036 -4 -2046 -10z"/>
</g>
</svg>
